# MagicaVoxel @ Ephtracy

# group
o 

# material
mtllib Alex.mtl
usemtl palette

# normals
vn -1 0 0
vn 1 0 0
vn 0 0 1
vn 0 0 -1
vn 0 -1 0
vn 0 1 0

# texcoords
vt 0.0566406 0.5
vt 0.146484 0.5
vt 0.373047 0.5
vt 0.677734 0.5
vt 0.748047 0.5
vt 0.904297 0.5
vt 0.908203 0.5
vt 0.912109 0.5
vt 0.916016 0.5
vt 0.990234 0.5
vt 0.994141 0.5

# verts
v -0.9 0.8 0
v -0.9 0.8 -0.2
v -0.9 1 0
v -0.9 1 -0.2
v -0.9 1.4 0
v -0.9 1.4 -0.2
v -0.8 0.9 1.5
v -0.8 0.9 1.3
v -0.8 1.5 1.5
v -0.8 1.5 1.3
v -0.7 0.6 -0.2
v -0.7 0.6 -0.8
v -0.7 0.8 -0.2
v -0.7 0.8 -0.8
v -0.7 0.8 -1
v -0.7 1 2.6
v -0.7 1 2.4
v -0.7 1 2.2
v -0.7 1 2
v -0.7 1 1.8
v -0.7 1 1.5
v -0.7 1 1.3
v -0.7 1 1.2
v -0.7 1 0
v -0.7 1 -0.2
v -0.7 1 -1
v -0.7 1 -1.2
v -0.7 1.2 -0.2
v -0.7 1.2 -0.8
v -0.7 1.4 2.6
v -0.7 1.4 2.4
v -0.7 1.4 2.2
v -0.7 1.4 2
v -0.7 1.4 1.8
v -0.7 1.4 1.5
v -0.7 1.4 1.3
v -0.7 1.4 1.2
v -0.7 1.4 0.6
v -0.7 1.4 0
v -0.7 1.4 -0.2
v -0.7 1.4 -0.6
v -0.7 1.4 -0.8
v -0.7 1.4 -1
v -0.7 1.4 -1.2
v -0.7 2.4 0.6
v -0.7 2.4 0.2
v -0.7 2.4 -0.2
v -0.7 2.4 -0.6
v -0.7 3.4 0.2
v -0.7 3.4 -0.2
v -0.5 0 0.2
v -0.5 0 -0.2
v -0.5 0.4 0.4
v -0.5 0.4 0.2
v -0.5 0.4 -0.2
v -0.5 0.4 -0.4
v -0.5 0.6 -0.2
v -0.5 0.6 -0.4
v -0.5 1 0.4
v -0.5 1 -0.2
v -0.1 0.6 -0.4
v -0.1 0.6 -0.6
v -0.1 0.8 -0.4
v -0.1 0.8 -0.6
v 0.1 0 0.2
v 0.1 0 -0.2
v 0.1 0.4 0.2
v 0.1 0.4 -0.2
v 0.1 2.4 0.2
v 0.1 2.4 -0.2
v 0.1 3.4 0.2
v 0.1 3.4 -0.2
v 0.5 1.6 0.6
v 0.5 1.6 0.4
v 0.5 1.8 0.4
v 0.5 2.2 0.6
v 0.5 2.2 0.4
v -0.7 0.8 0
v -0.7 0.8 -0.2
v -0.7 1 0
v -0.7 1 -0.2
v -0.5 0.6 -0.4
v -0.5 0.6 -0.8
v -0.5 0.8 -0.4
v -0.5 0.8 -0.8
v -0.5 0.8 -1
v -0.5 1 -0.4
v -0.5 1 -0.8
v -0.5 1 -1
v -0.5 1.6 0.6
v -0.5 1.6 0.4
v -0.5 1.8 0.4
v -0.5 2 0.4
v -0.5 2.2 0.6
v -0.5 2.2 0.4
v -0.3 1 2.6
v -0.3 1 2.4
v -0.3 1 2.2
v -0.3 1 2
v -0.3 1 1.8
v -0.3 1 1.5
v -0.3 1 1.3
v -0.3 1 1.2
v -0.3 1 0.4
v -0.3 1 -0.4
v -0.3 1 -0.8
v -0.3 1 -1
v -0.3 1 -1.2
v -0.3 1.2 0.4
v -0.3 1.2 -0.4
v -0.3 1.2 -0.8
v -0.3 1.4 2.6
v -0.3 1.4 2.4
v -0.3 1.4 2.2
v -0.3 1.4 2
v -0.3 1.4 1.8
v -0.3 1.4 1.5
v -0.3 1.4 1.3
v -0.3 1.4 1.2
v -0.3 1.4 0.6
v -0.3 1.4 0.4
v -0.3 1.4 -0.4
v -0.3 1.4 -0.6
v -0.3 1.4 -0.8
v -0.3 1.4 -1
v -0.3 1.4 -1.2
v -0.2 0.9 1.5
v -0.2 0.9 1.3
v -0.2 1.5 1.5
v -0.2 1.5 1.3
v -0.1 0 0.2
v -0.1 0 -0.2
v -0.1 0.4 0.2
v -0.1 0.4 -0.2
v -0.1 2.4 0.2
v -0.1 2.4 -0.2
v -0.1 3.4 0.2
v -0.1 3.4 -0.2
v 0.1 0.6 -0.4
v 0.1 0.6 -0.6
v 0.1 0.8 -0.4
v 0.1 0.8 -0.6
v 0.5 0 0.2
v 0.5 0 -0.2
v 0.5 0.4 0.4
v 0.5 0.4 0.2
v 0.5 0.4 -0.2
v 0.5 0.4 -0.4
v 0.5 0.6 0
v 0.5 0.6 -0.2
v 0.5 0.8 0
v 0.5 0.8 -0.2
v 0.5 1.2 -0.2
v 0.5 1.2 -0.4
v 0.5 1.4 0.4
v 0.5 1.4 0
v 0.5 1.4 -0.2
v 0.5 1.4 -0.4
v 0.7 0.6 0
v 0.7 0.6 -0.2
v 0.7 0.8 0
v 0.7 0.8 -0.2
v 0.7 1.4 0.6
v 0.7 1.4 0
v 0.7 1.4 -0.2
v 0.7 1.4 -0.6
v 0.7 2.4 0.6
v 0.7 2.4 0.2
v 0.7 2.4 -0.2
v 0.7 2.4 -0.6
v 0.7 3.4 0.2
v 0.7 3.4 -0.2
v -0.7 1 2.6
v -0.7 1.4 2.6
v -0.3 1 2.6
v -0.3 1.4 2.6
v -0.8 0.9 1.5
v -0.8 1.5 1.5
v -0.7 1 1.5
v -0.7 1.4 1.5
v -0.3 1 1.5
v -0.3 1.4 1.5
v -0.2 0.9 1.5
v -0.2 1.5 1.5
v -0.7 1.4 0.6
v -0.7 2.4 0.6
v -0.5 1.6 0.6
v -0.5 2.2 0.6
v -0.3 1.4 0.6
v 0.5 1.6 0.6
v 0.5 2.2 0.6
v 0.7 1.4 0.6
v 0.7 2.4 0.6
v -0.5 0.4 0.4
v -0.5 1 0.4
v -0.5 1.6 0.4
v -0.5 1.8 0.4
v -0.5 2 0.4
v -0.5 2.2 0.4
v -0.3 0.6 0.4
v -0.3 1 0.4
v -0.3 1.2 0.4
v -0.3 1.4 0.4
v -0.3 2 0.4
v -0.3 2.2 0.4
v -0.1 1.8 0.4
v -0.1 2.2 0.4
v 0.1 1 0.4
v 0.1 1.2 0.4
v 0.1 1.4 0.4
v 0.1 1.8 0.4
v 0.1 2 0.4
v 0.1 2.2 0.4
v 0.3 0.6 0.4
v 0.3 1.2 0.4
v 0.3 1.4 0.4
v 0.3 2 0.4
v 0.3 2.2 0.4
v 0.5 0.4 0.4
v 0.5 1.4 0.4
v 0.5 1.6 0.4
v 0.5 1.8 0.4
v 0.5 2.2 0.4
v -0.7 2.4 0.2
v -0.7 3.4 0.2
v -0.5 0 0.2
v -0.5 0.4 0.2
v -0.5 2.4 0.2
v -0.5 3.2 0.2
v -0.3 2.4 0.2
v -0.3 3.2 0.2
v -0.1 0 0.2
v -0.1 0.4 0.2
v -0.1 2.4 0.2
v -0.1 3.4 0.2
v 0.1 0 0.2
v 0.1 0.4 0.2
v 0.1 2.4 0.2
v 0.1 3.4 0.2
v 0.3 2.4 0.2
v 0.3 3.2 0.2
v 0.5 0 0.2
v 0.5 0.4 0.2
v 0.5 2.4 0.2
v 0.5 3.2 0.2
v 0.7 2.4 0.2
v 0.7 3.4 0.2
v -0.9 0.8 0
v -0.9 1 0
v -0.9 1.4 0
v -0.7 0.8 0
v -0.7 1 0
v -0.7 1.4 0
v 0.5 0.6 0
v 0.5 0.8 0
v 0.5 1.4 0
v 0.7 0.6 0
v 0.7 0.8 0
v 0.7 1.4 0
v -0.7 0.6 -0.2
v -0.7 0.8 -0.2
v -0.7 1 -0.2
v -0.5 0.6 -0.2
v -0.5 1 -0.2
v -0.8 0.9 1.3
v -0.8 1.5 1.3
v -0.7 1 1.3
v -0.7 1.4 1.3
v -0.3 1 1.3
v -0.3 1.4 1.3
v -0.2 0.9 1.3
v -0.2 1.5 1.3
v -0.9 0.8 -0.2
v -0.9 1 -0.2
v -0.9 1.4 -0.2
v -0.7 0.8 -0.2
v -0.7 1 -0.2
v -0.7 1.2 -0.2
v -0.7 1.4 -0.2
v -0.7 2.4 -0.2
v -0.7 3.4 -0.2
v -0.5 0 -0.2
v -0.5 0.4 -0.2
v -0.1 0 -0.2
v -0.1 0.4 -0.2
v -0.1 2.4 -0.2
v -0.1 3.4 -0.2
v 0.1 0 -0.2
v 0.1 0.4 -0.2
v 0.1 2.4 -0.2
v 0.1 3.4 -0.2
v 0.5 0 -0.2
v 0.5 0.4 -0.2
v 0.5 0.6 -0.2
v 0.5 0.8 -0.2
v 0.5 1.2 -0.2
v 0.5 1.4 -0.2
v 0.7 0.6 -0.2
v 0.7 0.8 -0.2
v 0.7 1.4 -0.2
v 0.7 2.4 -0.2
v 0.7 3.4 -0.2
v -0.5 0.4 -0.4
v -0.5 0.6 -0.4
v -0.5 0.8 -0.4
v -0.5 1 -0.4
v -0.3 1 -0.4
v -0.3 1.2 -0.4
v -0.3 1.4 -0.4
v -0.1 0.6 -0.4
v -0.1 0.8 -0.4
v -0.1 1 -0.4
v -0.1 1.2 -0.4
v -0.1 1.4 -0.4
v 0.1 0.6 -0.4
v 0.1 0.8 -0.4
v 0.3 1 -0.4
v 0.3 1.2 -0.4
v 0.3 1.4 -0.4
v 0.5 0.4 -0.4
v 0.5 1.2 -0.4
v 0.5 1.4 -0.4
v -0.7 1.4 -0.6
v -0.7 2.4 -0.6
v -0.3 1.4 -0.6
v -0.1 0.6 -0.6
v -0.1 0.8 -0.6
v 0.1 0.6 -0.6
v 0.1 0.8 -0.6
v 0.7 1.4 -0.6
v 0.7 2.4 -0.6
v -0.7 0.6 -0.8
v -0.7 0.8 -0.8
v -0.5 0.6 -0.8
v -0.5 0.8 -0.8
v -0.7 0.8 -1
v -0.7 1 -1
v -0.5 0.8 -1
v -0.5 1 -1
v -0.7 1 -1.2
v -0.7 1.4 -1.2
v -0.3 1 -1.2
v -0.3 1.4 -1.2
v -0.5 0 0.2
v -0.1 0 0.2
v 0.1 0 0.2
v 0.5 0 0.2
v -0.5 0 -0.2
v -0.1 0 -0.2
v 0.1 0 -0.2
v 0.5 0 -0.2
v -0.5 0.4 0.4
v 0.5 0.4 0.4
v -0.5 0.4 0.2
v -0.1 0.4 0.2
v 0.1 0.4 0.2
v 0.5 0.4 0.2
v -0.5 0.4 -0.2
v -0.1 0.4 -0.2
v 0.1 0.4 -0.2
v 0.5 0.4 -0.2
v -0.5 0.4 -0.4
v 0.5 0.4 -0.4
v 0.5 0.6 0
v 0.7 0.6 0
v -0.7 0.6 -0.2
v -0.5 0.6 -0.2
v 0.5 0.6 -0.2
v 0.7 0.6 -0.2
v -0.5 0.6 -0.4
v -0.1 0.6 -0.4
v 0.1 0.6 -0.4
v -0.1 0.6 -0.6
v 0.1 0.6 -0.6
v -0.7 0.6 -0.8
v -0.5 0.6 -0.8
v -0.9 0.8 0
v -0.7 0.8 0
v -0.9 0.8 -0.2
v -0.7 0.8 -0.2
v -0.7 0.8 -0.8
v -0.5 0.8 -0.8
v -0.7 0.8 -1
v -0.5 0.8 -1
v -0.8 0.9 1.5
v -0.2 0.9 1.5
v -0.8 0.9 1.3
v -0.2 0.9 1.3
v -0.7 1 2.6
v -0.3 1 2.6
v -0.7 1 2.4
v -0.3 1 2.4
v -0.7 1 2.2
v -0.3 1 2.2
v -0.7 1 2
v -0.3 1 2
v -0.7 1 1.8
v -0.3 1 1.8
v -0.7 1 1.5
v -0.3 1 1.5
v -0.7 1 1.3
v -0.3 1 1.3
v -0.7 1 1.2
v -0.3 1 1.2
v -0.5 1 0.4
v -0.3 1 0.4
v -0.7 1 0
v -0.7 1 -0.2
v -0.5 1 -0.2
v -0.5 1 -0.4
v -0.3 1 -0.4
v -0.5 1 -0.8
v -0.3 1 -0.8
v -0.7 1 -1
v -0.5 1 -1
v -0.3 1 -1
v -0.7 1 -1.2
v -0.3 1 -1.2
v -0.3 1.4 0.6
v 0.7 1.4 0.6
v -0.3 1.4 0.4
v 0.1 1.4 0.4
v 0.3 1.4 0.4
v 0.5 1.4 0.4
v 0.5 1.4 0
v 0.7 1.4 0
v 0.5 1.4 -0.2
v 0.7 1.4 -0.2
v -0.3 1.4 -0.4
v -0.1 1.4 -0.4
v 0.3 1.4 -0.4
v 0.5 1.4 -0.4
v -0.3 1.4 -0.6
v 0.7 1.4 -0.6
v -0.5 2.2 0.6
v 0.5 2.2 0.6
v -0.5 2.2 0.4
v -0.3 2.2 0.4
v -0.1 2.2 0.4
v 0.1 2.2 0.4
v 0.3 2.2 0.4
v 0.5 2.2 0.4
v -0.1 0.8 -0.4
v 0.1 0.8 -0.4
v -0.1 0.8 -0.6
v 0.1 0.8 -0.6
v -0.7 1.4 2.6
v -0.3 1.4 2.6
v -0.7 1.4 2.4
v -0.3 1.4 2.4
v -0.7 1.4 2.2
v -0.3 1.4 2.2
v -0.7 1.4 2
v -0.3 1.4 2
v -0.7 1.4 1.8
v -0.3 1.4 1.8
v -0.7 1.4 1.5
v -0.3 1.4 1.5
v -0.7 1.4 1.3
v -0.3 1.4 1.3
v -0.7 1.4 1.2
v -0.3 1.4 1.2
v -0.7 1.4 0.6
v -0.3 1.4 0.6
v -0.9 1.4 0
v -0.7 1.4 0
v -0.9 1.4 -0.2
v -0.7 1.4 -0.2
v -0.7 1.4 -0.6
v -0.3 1.4 -0.6
v -0.7 1.4 -0.8
v -0.3 1.4 -0.8
v -0.7 1.4 -1
v -0.3 1.4 -1
v -0.7 1.4 -1.2
v -0.3 1.4 -1.2
v -0.8 1.5 1.5
v -0.2 1.5 1.5
v -0.8 1.5 1.3
v -0.2 1.5 1.3
v -0.5 1.6 0.6
v 0.5 1.6 0.6
v -0.5 1.6 0.4
v 0.5 1.6 0.4
v -0.7 2.4 0.6
v 0.7 2.4 0.6
v -0.7 2.4 0.2
v -0.5 2.4 0.2
v -0.3 2.4 0.2
v -0.1 2.4 0.2
v 0.1 2.4 0.2
v 0.3 2.4 0.2
v 0.5 2.4 0.2
v 0.7 2.4 0.2
v -0.7 2.4 -0.2
v -0.1 2.4 -0.2
v 0.1 2.4 -0.2
v 0.7 2.4 -0.2
v -0.7 2.4 -0.6
v 0.7 2.4 -0.6
v -0.7 3.4 0.2
v -0.1 3.4 0.2
v 0.1 3.4 0.2
v 0.7 3.4 0.2
v -0.7 3.4 -0.2
v -0.1 3.4 -0.2
v 0.1 3.4 -0.2
v 0.7 3.4 -0.2

# faces
f 3/4/1 2/4/1 1/4/1
f 4/4/1 2/4/1 3/4/1
f 5/3/1 4/3/1 3/3/1
f 6/3/1 4/3/1 5/3/1
f 9/1/1 8/1/1 7/1/1
f 10/1/1 8/1/1 9/1/1
f 13/7/1 12/7/1 11/7/1
f 14/7/1 12/7/1 13/7/1
f 25/7/1 14/7/1 13/7/1
f 26/5/1 15/5/1 14/5/1
f 28/7/1 14/7/1 25/7/1
f 29/5/1 26/5/1 14/5/1
f 29/7/1 14/7/1 28/7/1
f 30/5/1 17/5/1 16/5/1
f 31/2/1 18/2/1 17/2/1
f 31/5/1 17/5/1 30/5/1
f 32/10/1 19/10/1 18/10/1
f 32/2/1 18/2/1 31/2/1
f 33/1/1 20/1/1 19/1/1
f 33/10/1 19/10/1 32/10/1
f 34/10/1 21/10/1 20/10/1
f 34/1/1 20/1/1 33/1/1
f 35/10/1 21/10/1 34/10/1
f 36/10/1 23/10/1 22/10/1
f 37/2/1 24/2/1 23/2/1
f 37/10/1 23/10/1 36/10/1
f 38/2/1 24/2/1 37/2/1
f 39/2/1 24/2/1 38/2/1
f 40/2/1 29/2/1 28/2/1
f 41/2/1 29/2/1 40/2/1
f 42/5/1 26/5/1 29/5/1
f 42/2/1 29/2/1 41/2/1
f 43/2/1 27/2/1 26/2/1
f 43/5/1 26/5/1 42/5/1
f 44/2/1 27/2/1 43/2/1
f 45/3/1 41/3/1 40/3/1
f 45/3/1 40/3/1 39/3/1
f 45/3/1 39/3/1 38/3/1
f 46/3/1 41/3/1 45/3/1
f 47/3/1 41/3/1 46/3/1
f 48/3/1 41/3/1 47/3/1
f 49/3/1 47/3/1 46/3/1
f 50/3/1 47/3/1 49/3/1
f 54/3/1 52/3/1 51/3/1
f 55/3/1 52/3/1 54/3/1
f 57/3/1 54/3/1 53/3/1
f 57/3/1 56/3/1 55/3/1
f 57/3/1 55/3/1 54/3/1
f 58/3/1 56/3/1 57/3/1
f 59/3/1 57/3/1 53/3/1
f 60/3/1 57/3/1 59/3/1
f 63/8/1 62/8/1 61/8/1
f 64/8/1 62/8/1 63/8/1
f 67/3/1 66/3/1 65/3/1
f 68/3/1 66/3/1 67/3/1
f 71/3/1 70/3/1 69/3/1
f 72/3/1 70/3/1 71/3/1
f 75/3/1 74/3/1 73/3/1
f 76/3/1 75/3/1 73/3/1
f 77/3/1 75/3/1 76/3/1
f 78/4/2 79/4/2 80/4/2
f 80/4/2 79/4/2 81/4/2
f 82/7/2 83/7/2 84/7/2
f 84/7/2 83/7/2 85/7/2
f 84/7/2 85/7/2 87/7/2
f 85/5/2 86/5/2 88/5/2
f 87/7/2 85/7/2 88/7/2
f 88/5/2 86/5/2 89/5/2
f 90/3/2 91/3/2 92/3/2
f 90/3/2 92/3/2 93/3/2
f 90/3/2 93/3/2 94/3/2
f 94/3/2 93/3/2 95/3/2
f 103/2/2 104/2/2 109/2/2
f 105/7/2 106/7/2 110/7/2
f 106/5/2 107/5/2 111/5/2
f 110/7/2 106/7/2 111/7/2
f 96/5/2 97/5/2 112/5/2
f 97/2/2 98/2/2 113/2/2
f 112/5/2 97/5/2 113/5/2
f 98/10/2 99/10/2 114/10/2
f 113/2/2 98/2/2 114/2/2
f 99/1/2 100/1/2 115/1/2
f 114/10/2 99/10/2 115/10/2
f 100/10/2 101/10/2 116/10/2
f 115/1/2 100/1/2 116/1/2
f 116/10/2 101/10/2 117/10/2
f 102/10/2 103/10/2 118/10/2
f 103/2/2 109/2/2 119/2/2
f 118/10/2 103/10/2 119/10/2
f 119/2/2 109/2/2 120/2/2
f 120/2/2 109/2/2 121/2/2
f 110/2/2 111/2/2 122/2/2
f 122/2/2 111/2/2 123/2/2
f 111/5/2 107/5/2 124/5/2
f 123/2/2 111/2/2 124/2/2
f 107/2/2 108/2/2 125/2/2
f 124/5/2 107/5/2 125/5/2
f 125/2/2 108/2/2 126/2/2
f 127/1/2 128/1/2 129/1/2
f 129/1/2 128/1/2 130/1/2
f 131/3/2 132/3/2 133/3/2
f 133/3/2 132/3/2 134/3/2
f 135/3/2 136/3/2 137/3/2
f 137/3/2 136/3/2 138/3/2
f 139/8/2 140/8/2 141/8/2
f 141/8/2 140/8/2 142/8/2
f 143/3/2 144/3/2 146/3/2
f 146/3/2 144/3/2 147/3/2
f 145/3/2 146/3/2 149/3/2
f 147/3/2 148/3/2 149/3/2
f 146/3/2 147/3/2 149/3/2
f 149/3/2 148/3/2 150/3/2
f 145/3/2 149/3/2 151/3/2
f 150/3/2 148/3/2 152/3/2
f 152/3/2 148/3/2 153/3/2
f 153/3/2 148/3/2 154/3/2
f 145/3/2 151/3/2 155/3/2
f 155/3/2 151/3/2 156/3/2
f 153/7/2 154/7/2 157/7/2
f 157/7/2 154/7/2 158/7/2
f 159/4/2 160/4/2 161/4/2
f 161/4/2 160/4/2 162/4/2
f 161/3/2 162/3/2 164/3/2
f 164/3/2 162/3/2 165/3/2
f 164/3/2 165/3/2 167/3/2
f 165/3/2 166/3/2 167/3/2
f 163/3/2 164/3/2 167/3/2
f 167/3/2 166/3/2 168/3/2
f 168/3/2 166/3/2 169/3/2
f 169/3/2 166/3/2 170/3/2
f 168/3/2 169/3/2 171/3/2
f 171/3/2 169/3/2 172/3/2
f 175/5/3 174/5/3 173/5/3
f 176/5/3 174/5/3 175/5/3
f 179/1/3 178/1/3 177/1/3
f 180/1/3 178/1/3 179/1/3
f 181/1/3 179/1/3 177/1/3
f 182/1/3 178/1/3 180/1/3
f 183/1/3 181/1/3 177/1/3
f 183/1/3 182/1/3 181/1/3
f 184/1/3 178/1/3 182/1/3
f 184/1/3 182/1/3 183/1/3
f 187/3/3 186/3/3 185/3/3
f 188/3/3 186/3/3 187/3/3
f 189/3/3 187/3/3 185/3/3
f 190/3/3 187/3/3 189/3/3
f 191/3/3 186/3/3 188/3/3
f 192/3/3 190/3/3 189/3/3
f 192/3/3 191/3/3 190/3/3
f 193/3/3 186/3/3 191/3/3
f 193/3/3 191/3/3 192/3/3
f 200/3/3 195/3/3 194/3/3
f 201/3/3 195/3/3 200/3/3
f 204/9/3 199/9/3 198/9/3
f 204/11/3 198/11/3 197/11/3
f 205/9/3 199/9/3 204/9/3
f 206/4/3 197/4/3 196/4/3
f 206/11/3 204/11/3 197/11/3
f 206/11/3 205/11/3 204/11/3
f 207/11/3 205/11/3 206/11/3
f 208/7/3 202/7/3 201/7/3
f 208/8/3 201/8/3 200/8/3
f 209/8/3 203/8/3 202/8/3
f 209/7/3 202/7/3 208/7/3
f 210/8/3 203/8/3 209/8/3
f 211/4/3 207/4/3 206/4/3
f 211/4/3 206/4/3 196/4/3
f 212/4/3 207/4/3 211/4/3
f 213/4/3 207/4/3 212/4/3
f 214/8/3 208/8/3 200/8/3
f 214/3/3 200/3/3 194/3/3
f 214/8/3 209/8/3 208/8/3
f 215/7/3 210/7/3 209/7/3
f 215/8/3 209/8/3 214/8/3
f 216/7/3 210/7/3 215/7/3
f 217/9/3 213/9/3 212/9/3
f 217/11/3 212/11/3 211/11/3
f 218/9/3 213/9/3 217/9/3
f 219/3/3 216/3/3 215/3/3
f 219/3/3 214/3/3 194/3/3
f 219/3/3 215/3/3 214/3/3
f 220/3/3 216/3/3 219/3/3
f 221/4/3 211/4/3 196/4/3
f 222/11/3 218/11/3 217/11/3
f 222/4/3 211/4/3 221/4/3
f 222/11/3 217/11/3 211/11/3
f 223/11/3 218/11/3 222/11/3
f 228/3/3 225/3/3 224/3/3
f 229/3/3 225/3/3 228/3/3
f 230/6/3 229/6/3 228/6/3
f 231/3/3 225/3/3 229/3/3
f 231/6/3 229/6/3 230/6/3
f 232/3/3 227/3/3 226/3/3
f 233/3/3 227/3/3 232/3/3
f 234/3/3 231/3/3 230/3/3
f 235/3/3 225/3/3 231/3/3
f 235/3/3 231/3/3 234/3/3
f 240/3/3 239/3/3 238/3/3
f 241/3/3 239/3/3 240/3/3
f 242/3/3 237/3/3 236/3/3
f 243/3/3 237/3/3 242/3/3
f 244/6/3 241/6/3 240/6/3
f 245/3/3 239/3/3 241/3/3
f 245/6/3 241/6/3 244/6/3
f 246/3/3 245/3/3 244/3/3
f 247/3/3 239/3/3 245/3/3
f 247/3/3 245/3/3 246/3/3
f 251/4/3 249/4/3 248/4/3
f 252/3/3 250/3/3 249/3/3
f 252/4/3 249/4/3 251/4/3
f 253/3/3 250/3/3 252/3/3
f 257/4/3 255/4/3 254/4/3
f 258/3/3 256/3/3 255/3/3
f 258/4/3 255/4/3 257/4/3
f 259/3/3 256/3/3 258/3/3
f 263/7/3 261/7/3 260/7/3
f 263/7/3 262/7/3 261/7/3
f 264/7/3 262/7/3 263/7/3
f 265/1/4 266/1/4 267/1/4
f 267/1/4 266/1/4 268/1/4
f 265/1/4 267/1/4 269/1/4
f 268/1/4 266/1/4 270/1/4
f 265/1/4 269/1/4 271/1/4
f 269/1/4 270/1/4 271/1/4
f 270/1/4 266/1/4 272/1/4
f 271/1/4 270/1/4 272/1/4
f 273/4/4 274/4/4 276/4/4
f 274/3/4 275/3/4 277/3/4
f 276/4/4 274/4/4 277/4/4
f 277/3/4 275/3/4 278/3/4
f 278/3/4 275/3/4 279/3/4
f 282/3/4 283/3/4 284/3/4
f 284/3/4 283/3/4 285/3/4
f 280/3/4 281/3/4 286/3/4
f 286/3/4 281/3/4 287/3/4
f 288/3/4 289/3/4 292/3/4
f 292/3/4 289/3/4 293/3/4
f 294/4/4 295/4/4 298/4/4
f 296/3/4 297/3/4 299/3/4
f 298/4/4 295/4/4 299/4/4
f 295/3/4 296/3/4 299/3/4
f 299/3/4 297/3/4 300/3/4
f 290/3/4 291/3/4 301/3/4
f 301/3/4 291/3/4 302/3/4
f 305/7/4 306/7/4 307/7/4
f 303/3/4 304/3/4 310/3/4
f 304/3/4 305/3/4 310/3/4
f 305/7/4 307/7/4 311/7/4
f 310/3/4 305/3/4 311/3/4
f 307/3/4 308/3/4 312/3/4
f 311/7/4 307/7/4 312/7/4
f 308/7/4 309/7/4 313/7/4
f 312/3/4 308/3/4 313/3/4
f 313/7/4 309/7/4 314/7/4
f 303/3/4 310/3/4 315/3/4
f 311/3/4 312/3/4 316/3/4
f 312/7/4 313/7/4 317/7/4
f 315/3/4 316/3/4 317/3/4
f 316/3/4 312/3/4 317/3/4
f 313/3/4 314/3/4 318/3/4
f 317/7/4 313/7/4 318/7/4
f 318/3/4 314/3/4 319/3/4
f 303/3/4 315/3/4 320/3/4
f 315/3/4 317/3/4 320/3/4
f 317/3/4 318/3/4 320/3/4
f 318/7/4 319/7/4 321/7/4
f 320/3/4 318/3/4 321/3/4
f 321/7/4 319/7/4 322/7/4
f 323/3/4 324/3/4 325/3/4
f 326/8/4 327/8/4 328/8/4
f 328/8/4 327/8/4 329/8/4
f 325/3/4 324/3/4 330/3/4
f 330/3/4 324/3/4 331/3/4
f 332/7/4 333/7/4 334/7/4
f 334/7/4 333/7/4 335/7/4
f 336/5/4 337/5/4 338/5/4
f 338/5/4 337/5/4 339/5/4
f 340/2/4 341/2/4 342/2/4
f 342/2/4 341/2/4 343/2/4
f 348/3/5 345/3/5 344/3/5
f 349/3/5 345/3/5 348/3/5
f 350/3/5 347/3/5 346/3/5
f 351/3/5 347/3/5 350/3/5
f 354/3/5 353/3/5 352/3/5
f 355/3/5 353/3/5 354/3/5
f 356/3/5 353/3/5 355/3/5
f 357/3/5 353/3/5 356/3/5
f 359/3/5 356/3/5 355/3/5
f 360/3/5 356/3/5 359/3/5
f 362/3/5 359/3/5 358/3/5
f 362/3/5 361/3/5 360/3/5
f 362/3/5 360/3/5 359/3/5
f 363/3/5 361/3/5 362/3/5
f 368/4/5 365/4/5 364/4/5
f 369/4/5 365/4/5 368/4/5
f 370/7/5 367/7/5 366/7/5
f 373/8/5 372/8/5 371/8/5
f 374/8/5 372/8/5 373/8/5
f 375/7/5 370/7/5 366/7/5
f 376/7/5 370/7/5 375/7/5
f 379/4/5 378/4/5 377/4/5
f 380/4/5 378/4/5 379/4/5
f 383/5/5 382/5/5 381/5/5
f 384/5/5 382/5/5 383/5/5
f 387/1/5 386/1/5 385/1/5
f 388/1/5 386/1/5 387/1/5
f 391/5/5 390/5/5 389/5/5
f 392/5/5 390/5/5 391/5/5
f 393/2/5 392/2/5 391/2/5
f 394/2/5 392/2/5 393/2/5
f 395/10/5 394/10/5 393/10/5
f 396/10/5 394/10/5 395/10/5
f 397/1/5 396/1/5 395/1/5
f 398/1/5 396/1/5 397/1/5
f 399/10/5 398/10/5 397/10/5
f 400/10/5 398/10/5 399/10/5
f 403/10/5 402/10/5 401/10/5
f 404/10/5 402/10/5 403/10/5
f 405/2/5 404/2/5 403/2/5
f 406/2/5 404/2/5 405/2/5
f 407/2/5 405/2/5 403/2/5
f 408/2/5 405/2/5 407/2/5
f 409/2/5 405/2/5 408/2/5
f 412/7/5 411/7/5 410/7/5
f 413/7/5 411/7/5 412/7/5
f 415/5/5 413/5/5 412/5/5
f 416/5/5 413/5/5 415/5/5
f 417/2/5 415/2/5 414/2/5
f 417/2/5 416/2/5 415/2/5
f 418/2/5 416/2/5 417/2/5
f 421/3/5 420/3/5 419/3/5
f 422/3/5 420/3/5 421/3/5
f 423/3/5 420/3/5 422/3/5
f 424/3/5 420/3/5 423/3/5
f 425/3/5 420/3/5 424/3/5
f 426/3/5 420/3/5 425/3/5
f 432/3/5 428/3/5 427/3/5
f 433/3/5 431/3/5 430/3/5
f 433/3/5 432/3/5 431/3/5
f 433/3/5 430/3/5 429/3/5
f 434/3/5 428/3/5 432/3/5
f 434/3/5 432/3/5 433/3/5
f 437/3/5 436/3/5 435/3/5
f 438/3/5 436/3/5 437/3/5
f 439/3/5 436/3/5 438/3/5
f 440/3/5 436/3/5 439/3/5
f 441/3/5 436/3/5 440/3/5
f 442/3/5 436/3/5 441/3/5
f 443/8/6 444/8/6 445/8/6
f 445/8/6 444/8/6 446/8/6
f 447/5/6 448/5/6 449/5/6
f 449/5/6 448/5/6 450/5/6
f 449/2/6 450/2/6 451/2/6
f 451/2/6 450/2/6 452/2/6
f 451/10/6 452/10/6 453/10/6
f 453/10/6 452/10/6 454/10/6
f 453/1/6 454/1/6 455/1/6
f 455/1/6 454/1/6 456/1/6
f 455/10/6 456/10/6 457/10/6
f 457/10/6 456/10/6 458/10/6
f 459/10/6 460/10/6 461/10/6
f 461/10/6 460/10/6 462/10/6
f 461/2/6 462/2/6 463/2/6
f 463/2/6 462/2/6 464/2/6
f 465/3/6 466/3/6 467/3/6
f 467/3/6 466/3/6 468/3/6
f 469/2/6 470/2/6 471/2/6
f 471/2/6 470/2/6 472/2/6
f 471/5/6 472/5/6 473/5/6
f 473/5/6 472/5/6 474/5/6
f 473/2/6 474/2/6 475/2/6
f 475/2/6 474/2/6 476/2/6
f 477/1/6 478/1/6 479/1/6
f 479/1/6 478/1/6 480/1/6
f 481/3/6 482/3/6 483/3/6
f 483/3/6 482/3/6 484/3/6
f 485/3/6 486/3/6 487/3/6
f 487/3/6 486/3/6 488/3/6
f 488/3/6 486/3/6 489/3/6
f 489/3/6 486/3/6 490/3/6
f 490/3/6 486/3/6 491/3/6
f 491/3/6 486/3/6 492/3/6
f 492/3/6 486/3/6 493/3/6
f 493/3/6 486/3/6 494/3/6
f 490/3/6 491/3/6 496/3/6
f 496/3/6 491/3/6 497/3/6
f 495/3/6 496/3/6 499/3/6
f 497/3/6 498/3/6 499/3/6
f 496/3/6 497/3/6 499/3/6
f 499/3/6 498/3/6 500/3/6
f 501/3/6 502/3/6 505/3/6
f 505/3/6 502/3/6 506/3/6
f 503/3/6 504/3/6 507/3/6
f 507/3/6 504/3/6 508/3/6
